<svg xmlns="http://www.w3.org/2000/svg" xmlns:xlink="http://www.w3.org/1999/xlink" width="2000" zoomAndPan="magnify" viewBox="0 0 1500 1124.99995" height="1500" preserveAspectRatio="xMidYMid meet" version="1.0"><defs><g/></defs><rect x="-150" width="1800" fill="#ffffff" y="-112.499995" height="1349.99994" fill-opacity="1"/><rect x="-150" width="1800" fill="#181817" y="-112.499995" height="1349.99994" fill-opacity="1"/><g fill="#ffffff" fill-opacity="1"><g transform="translate(221.041555, 838.959795)"><g><path d="M -10.078125 -110.625 C -17.777344 -99.972656 -32.09375 -79.195312 -11.171875 -72.472656 C 0.242188 -68.726562 8.664062 -79.730469 7.238281 -88.53125 C 7.785156 -89.242188 8.332031 -89.957031 8.769531 -90.53125 C 8.992188 -90.816406 9.210938 -91.101562 9.320312 -91.246094 C 10.210938 -90.335938 11.066406 -89.679688 11.421875 -88.957031 C 12.730469 -86.820312 13.714844 -84.253906 14.050781 -81.730469 C 15.835938 -69.257812 -1.078125 -55.453125 -13.222656 -57.949219 C -38.835938 -63.277344 -58.832031 -113.261719 -33.9375 -129.792969 C -19.40625 -139.300781 -35.613281 -160.773438 -50.144531 -151.265625 C -107.902344 -113.417969 -41.441406 4.09375 18 -40.398438 C 30.257812 -49.601562 40.566406 -61.886719 41.1875 -77.503906 C 41.726562 -91.828125 34.808594 -106.1875 24.097656 -115.292969 C 11.132812 -125.898438 -0.480469 -123.453125 -10.078125 -110.625 Z M -10.078125 -110.625 "/></g></g></g><g fill="#ffffff" fill-opacity="1"><g transform="translate(285.550408, 754.64055)"><g><path d="M 28.152344 -79.359375 C 18.773438 -71.195312 10.140625 -62.253906 2.007812 -53.042969 C -2.050781 -58.621094 -5.976562 -64.324219 -10.035156 -69.902344 C -5.597656 -74.117188 -1.035156 -78.203125 3.898438 -81.894531 C 9.746094 -86.453125 9.101562 -96.019531 4.390625 -100.980469 C -1.0625 -106.722656 -8.847656 -106.03125 -14.695312 -101.472656 C -18.460938 -98.640625 -21.976562 -95.550781 -25.625 -92.332031 C -29.550781 -98.039062 -33.472656 -103.996094 -37.523438 -109.828125 C -30.867188 -116.152344 -24.09375 -122.085938 -17.0625 -128.015625 C -3.664062 -139.003906 -22.257812 -158.582031 -35.65625 -147.597656 C -45.671875 -139.324219 -55.324219 -130.40625 -64.351562 -121.089844 C -68.007812 -117.621094 -68.882812 -113.3125 -68.09375 -109.347656 C -67.753906 -107.683594 -67.035156 -105.882812 -65.933594 -104.199219 C -47.433594 -76.089844 -28.152344 -48.726562 -8.347656 -21.859375 C -2.566406 -13.945312 8.363281 -18.117188 13.101562 -24.105469 C 22.988281 -37.21875 34.371094 -49.023438 46.742188 -59.777344 C 59.769531 -71.15625 41.175781 -90.734375 28.152344 -79.359375 Z M 28.152344 -79.359375 "/></g></g></g><g fill="#ffffff" fill-opacity="1"><g transform="translate(348.90387, 692.453498)"><g><path d="M 17.875 -151.003906 C -8.035156 -162.710938 -41.542969 -143.46875 -46.347656 -116.398438 C -52.785156 -92.351562 -33.753906 -59.789062 -17.398438 -45.464844 C -6.140625 -35.71875 10.273438 -28.636719 25.097656 -33.117188 C 40.566406 -37.605469 51.375 -51.769531 55.730469 -66.753906 C 60.027344 -82.136719 57.824219 -98.734375 51.050781 -113.078125 C 44.234375 -127.171875 32.6875 -144.351562 17.875 -151.003906 Z M 30.414062 -74.722656 C 30.171875 -74.121094 30.078125 -73.621094 29.9375 -72.871094 C 27.933594 -65.605469 21.480469 -58.785156 13.785156 -59.1875 C 8.890625 -59.324219 4.660156 -62.316406 0.976562 -65.464844 C -4.882812 -70.835938 -9.757812 -77.3125 -13.492188 -84.355469 C -16.816406 -90.804688 -20.519531 -99.394531 -20.460938 -106.636719 C -20.292969 -113.078125 -16.925781 -119.3125 -11.683594 -123.121094 C -2.578125 -129.578125 7.636719 -127.410156 14.574219 -119.507812 C 25.308594 -107.660156 33.855469 -91.042969 30.414062 -74.722656 Z M 30.414062 -74.722656 "/></g></g></g><g fill="#ffffff" fill-opacity="1"><g transform="translate(437.693445, 631.715551)"><g><path d="M 27.164062 -99.097656 C 21.546875 -100.023438 10.554688 -98.003906 6.214844 -102.125 C -0.488281 -108.707031 7.714844 -119.5625 12.011719 -124.785156 C 23.007812 -138.15625 0.707031 -153.289062 -10.289062 -139.917969 C -27.234375 -119.347656 -28.652344 -83.222656 2.082031 -74.675781 C 12.886719 -71.625 29.25 -76.1875 36.578125 -64.917969 C 39.613281 -60.183594 39.410156 -54.308594 35.777344 -50.199219 C 33.304688 -47.4375 22.761719 -40.253906 18.464844 -42.601562 C 3.175781 -50.496094 -12.195312 -28.28125 3.171875 -20.222656 C 34.382812 -3.933594 75.175781 -36.394531 63.351562 -70.625 C 57.890625 -86.363281 43.378906 -96.820312 27.164062 -99.097656 Z M 27.164062 -99.097656 "/></g></g></g><g fill="#ffffff" fill-opacity="1"><g transform="translate(516.632908, 592.819024)"><g><path d="M 35.113281 -138.453125 C 23.363281 -139.503906 10.421875 -137.578125 0.878906 -130.457031 C -10.011719 -122.191406 -11.285156 -110.5625 -9.0625 -97.894531 C -3.609375 -65.917969 2.761719 -34.019531 8.738281 -2.191406 C 11.878906 14.894531 37.785156 7.285156 34.640625 -9.804688 C 32.167969 -23.332031 29.519531 -36.8125 27.09375 -50.171875 C 51.070312 -51.589844 74.367188 -67.4375 78.285156 -92.414062 C 82.679688 -119.597656 59.636719 -136.089844 35.113281 -138.453125 Z M 22.144531 -77.234375 C 21.242188 -82.222656 20.117188 -87.332031 19.214844 -92.320312 C 18.496094 -96.046875 16.199219 -101.941406 16.839844 -105.507812 C 17.429688 -109.246094 15.734375 -107.996094 19.230469 -110.148438 C 27.277344 -115.324219 49.683594 -111.214844 51.761719 -100.945312 C 55.222656 -84.703125 34.558594 -77.128906 22.144531 -77.234375 Z M 22.144531 -77.234375 "/></g></g></g><g fill="#ffffff" fill-opacity="1"><g transform="translate(617.182762, 562.922005)"><g><path d="M 82.597656 -89.742188 C 80.125 -105.214844 74.695312 -145.894531 49.660156 -131.347656 C 33.425781 -121.886719 23.167969 -97.9375 17.847656 -80.949219 C 10.917969 -57.953125 9.144531 -34.335938 7.929688 -10.601562 C 7.007812 6.746094 33.621094 10.683594 34.542969 -6.660156 C 35.035156 -15.792969 35.507812 -25.101562 36.359375 -34.277344 L 63.285156 -36.546875 C 64.535156 -29.445312 65.601562 -22.324219 66.648438 -15.378906 C 69.164062 1.902344 95.957031 -1.4375 93.265625 -18.695312 C 89.769531 -42.386719 86.449219 -66.097656 82.597656 -89.742188 Z M 41.261719 -64.820312 C 43.320312 -73.058594 46.269531 -81.40625 50.046875 -88.949219 C 51.339844 -91.652344 52.839844 -94.195312 54.355469 -96.5625 C 54.980469 -93.011719 55.246094 -89.417969 55.804688 -86.402344 C 57.117188 -78.765625 58.253906 -71.109375 59.414062 -63.273438 C 53.136719 -62.671875 46.84375 -62.25 40.570312 -61.648438 C 40.792969 -62.765625 41.039062 -63.703125 41.261719 -64.820312 Z M 41.261719 -64.820312 "/></g></g></g><g fill="#ffffff" fill-opacity="1"><g transform="translate(1097.905465, 581.718896)"><g><path d="M 98.402344 -8.890625 C 93.953125 -12 89.261719 -15.039062 84.722656 -17.988281 C 86.832031 -21.757812 88.941406 -25.527344 90.960938 -29.140625 C 99.328125 -44.46875 75.765625 -57.648438 67.398438 -42.324219 C 65.554688 -39.023438 63.707031 -35.726562 61.773438 -32.269531 C 57.148438 -35.0625 52.523438 -37.855469 47.8125 -40.492188 C 32.574219 -49.015625 19.394531 -25.453125 34.632812 -16.925781 C 39.34375 -14.292969 43.96875 -11.5 48.59375 -8.703125 C 45.761719 -3.277344 42.6875 2.222656 39.613281 7.71875 C 31.089844 22.957031 54.652344 36.140625 63.175781 20.902344 C 65.988281 15.875 68.886719 10.691406 71.542969 5.574219 C 76.238281 8.613281 80.773438 11.566406 85.222656 14.671875 C 99.511719 24.523438 112.695312 0.957031 98.402344 -8.890625 Z M 98.402344 -8.890625 "/></g></g></g><g fill="#ffffff" fill-opacity="1"><g transform="translate(1188.390948, 632.334294)"><g/></g></g><g fill="#ffffff" fill-opacity="1"><g transform="translate(1236.147178, 659.047978)"><g><path d="M 123.894531 -63.3125 C 112 -55.324219 99.949219 -47.421875 87.671875 -39.851562 C 86.472656 -53.929688 85.671875 -67.988281 85.121094 -82.117188 C 84.714844 -99.460938 57.703125 -99.101562 58.265625 -81.667969 C 58.75 -62.628906 60.042969 -43.550781 62.066406 -24.679688 C 50.230469 -17.894531 38.320312 -11.355469 26.34375 -5.0625 C 10.902344 3.003906 24.730469 26.210938 39.929688 18.210938 C 48.597656 13.777344 57.195312 9.101562 65.636719 4.335938 C 67.113281 14.234375 68.675781 23.976562 70.480469 33.652344 C 73.472656 50.792969 99.527344 43.296875 96.449219 26.3125 C 94.105469 14.277344 92.339844 1.949219 90.890625 -10.207031 C 106.722656 -19.707031 122.417969 -29.695312 137.726562 -40.105469 C 151.882812 -49.925781 138.296875 -73.203125 123.894531 -63.3125 Z M 123.894531 -63.3125 "/></g></g></g><g fill="#ffffff" fill-opacity="1"><g transform="translate(727.497899, 552.614331)"><g><path d="M 82.292969 -123.578125 C 62.320312 -126.164062 42.34375 -126.585938 22.175781 -124.671875 C 5.070312 -122.925781 4.804688 -95.925781 22.089844 -97.671875 C 27.492188 -98.191406 32.714844 -98.535156 37.933594 -98.699219 C 36.230469 -72.425781 34.707031 -45.96875 33.003906 -19.695312 C 31.867188 -2.417969 58.867188 -2.332031 60.003906 -19.609375 C 61.707031 -45.882812 63.230469 -71.980469 64.933594 -98.253906 C 70.691406 -97.875 76.449219 -97.316406 82.207031 -96.578125 C 99.480469 -94.363281 99.386719 -121.363281 82.292969 -123.578125 Z M 82.292969 -123.578125 "/></g></g></g><g fill="#ffffff" fill-opacity="1"><g transform="translate(824.554376, 554.002008)"><g><path d="M 30.222656 -108.042969 C 22.777344 -76.304688 16.207031 -44.28125 10.527344 -12.148438 C 7.367188 5.054688 34.195312 8.101562 37.332031 -8.925781 C 43.011719 -41.054688 49.585938 -73.082031 57.027344 -104.820312 C 60.878906 -121.761719 34.074219 -124.984375 30.222656 -108.042969 Z M 30.222656 -108.042969 "/></g></g></g><g fill="#ffffff" fill-opacity="1"><g transform="translate(871.088878, 557.716675)"><g><path d="M 108.9375 -54.851562 C 112.078125 -70.203125 121.34375 -110.183594 92.789062 -105.398438 C 74.257812 -102.273438 56.214844 -83.476562 45.246094 -69.453125 C 30.652344 -50.382812 20.664062 -28.902344 11.160156 -7.125 C 4.179688 8.78125 27.691406 21.855469 34.671875 5.945312 C 38.355469 -2.425781 42.078125 -10.96875 46.113281 -19.253906 L 72.109375 -11.882812 C 70.773438 -4.796875 69.261719 2.246094 67.792969 9.109375 C 64.050781 26.171875 90.300781 32.492188 93.867188 15.394531 C 98.949219 -8.007812 104.203125 -31.367188 108.9375 -54.851562 Z M 61.46875 -46.105469 C 66.296875 -53.089844 72.003906 -59.859375 78.195312 -65.589844 C 80.363281 -67.660156 82.660156 -69.511719 84.917969 -71.191406 C 84.246094 -67.648438 83.230469 -64.191406 82.6875 -61.175781 C 81.226562 -53.566406 79.585938 -46 77.90625 -38.257812 C 71.824219 -39.90625 65.785156 -41.734375 59.703125 -43.382812 C 60.304688 -44.347656 60.867188 -45.140625 61.46875 -46.105469 Z M 61.46875 -46.105469 "/></g></g></g><g fill="#ffffff" fill-opacity="1"><g transform="translate(963.92129, 579.505541)"><g><path d="M 90.277344 -11.457031 C 76.875 -15.78125 63.300781 -19.199219 49.550781 -21.71875 C 60.105469 -41.320312 70.496094 -60.992188 80.886719 -80.660156 C 88.9375 -96.039062 63.949219 -106.269531 55.902344 -90.894531 C 42.761719 -65.933594 29.453125 -41.039062 16.3125 -16.078125 C 12.136719 -8.257812 19.242188 1.460938 27.222656 2.398438 C 45.289062 4.351562 62.84375 8.039062 80.042969 13.527344 C 96.511719 18.910156 106.914062 -6.007812 90.277344 -11.457031 Z M 90.277344 -11.457031 "/></g></g></g></svg>