<svg xmlns="http://www.w3.org/2000/svg" xmlns:xlink="http://www.w3.org/1999/xlink" width="224" zoomAndPan="magnify" viewBox="0 0 168 94.499997" height="126" preserveAspectRatio="xMidYMid meet" version="1.0"><defs><g/><clipPath id="ac6e981fb7"><path d="M 0.441406 56 L 26 56 L 26 85 L 0.441406 85 Z M 0.441406 56 " clip-rule="nonzero"/></clipPath></defs><g fill="#ffffff" fill-opacity="1"><g transform="translate(123.70625, 28.577147)"><g><path d="M 17.042969 -8.171875 C 15.390625 -5.960938 13.683594 -3.8125 11.957031 -1.671875 L 12.414062 -7.253906 C 12.578125 -8.945312 10.203125 -9.59375 9.152344 -8.496094 C 6.34375 -5.53125 3.660156 -2.472656 1.085938 0.699219 C -0.441406 2.574219 2.289062 5.226562 3.828125 3.332031 C 5.242188 1.566406 6.707031 -0.140625 8.195312 -1.835938 C 8.03125 0.171875 7.84375 2.167969 7.691406 4.152344 C 7.550781 5.796875 9.945312 6.574219 10.941406 5.417969 C 14.015625 1.851562 16.957031 -1.785156 19.761719 -5.554688 C 21.214844 -7.496094 18.472656 -10.125 17.042969 -8.171875 Z M 17.042969 -8.171875 "/></g></g></g><g fill="#ffffff" fill-opacity="1"><g transform="translate(138.78381, 36.562287)"><g><path d="M 12.738281 -6.722656 C 12.285156 -7.359375 11.019531 -8.292969 11.035156 -9.15625 C 11.0625 -10.472656 12.964844 -10.675781 13.902344 -10.714844 C 16.324219 -10.875 15.738281 -14.636719 13.316406 -14.476562 C 9.582031 -14.230469 5.742188 -10.882812 7.828125 -6.941406 C 8.546875 -5.519531 10.585938 -4.28125 10.148438 -2.472656 C 9.945312 -1.683594 9.332031 -1.164062 8.5625 -1.140625 C 8.035156 -1.105469 6.285156 -1.492188 6.113281 -2.15625 C 5.453125 -4.480469 1.710938 -3.941406 2.363281 -1.59375 C 3.699219 3.164062 10.929688 4.238281 13.304688 -0.28125 C 14.378906 -2.332031 14.054688 -4.820312 12.738281 -6.722656 Z M 12.738281 -6.722656 "/></g></g></g><g clip-path="url(#ac6e981fb7)"><g fill="#ffffff" fill-opacity="1"><g transform="translate(13.233876, 83.205811)"><g><path d="M 4.699219 -14.867188 C 3.121094 -13.90625 0.140625 -11.992188 2.484375 -9.988281 C 3.761719 -8.882812 5.449219 -9.851562 5.742188 -11.066406 C 5.851562 -11.128906 5.960938 -11.191406 6.046875 -11.242188 C 6.089844 -11.269531 6.136719 -11.292969 6.15625 -11.304688 C 6.222656 -11.140625 6.296875 -11.007812 6.304688 -10.894531 C 6.359375 -10.546875 6.347656 -10.164062 6.253906 -9.816406 C 5.808594 -8.105469 2.871094 -7.238281 1.433594 -8.21875 C -1.59375 -10.296875 -1.46875 -17.851562 2.648438 -18.644531 C 5.046875 -19.085938 4.113281 -22.742188 1.714844 -22.300781 C -7.8125 -20.535156 -5.585938 -1.71875 4.523438 -4.253906 C 6.609375 -4.777344 8.609375 -5.808594 9.535156 -7.796875 C 10.382812 -9.621094 10.265625 -11.855469 9.375 -13.617188 C 8.273438 -15.691406 6.636719 -16.007812 4.699219 -14.867188 Z M 4.699219 -14.867188 "/></g></g></g></g><g fill="#ffffff" fill-opacity="1"><g transform="translate(28.445019, 74.196367)"><g><path d="M 4.59375 -10.878906 C 3.230469 -9.789062 1.933594 -8.625 0.734375 -7.378906 C 0.210938 -8.191406 -0.292969 -9.023438 -0.835938 -9.855469 C -0.179688 -10.410156 0.507812 -10.929688 1.214844 -11.425781 C 2.070312 -12.019531 2.054688 -13.363281 1.433594 -14.097656 C 0.714844 -14.945312 -0.378906 -14.910156 -1.238281 -14.316406 C -1.769531 -13.929688 -2.304688 -13.542969 -2.824219 -13.105469 C -3.347656 -13.953125 -3.847656 -14.820312 -4.351562 -15.648438 C -3.371094 -16.484375 -2.390625 -17.28125 -1.339844 -18.035156 C 0.605469 -19.488281 -1.84375 -22.378906 -3.789062 -20.925781 C -5.261719 -19.847656 -6.683594 -18.675781 -8.039062 -17.460938 C -8.5625 -16.984375 -8.71875 -16.386719 -8.65625 -15.84375 C -8.621094 -15.609375 -8.535156 -15.351562 -8.378906 -15.085938 C -6.027344 -11.019531 -3.542969 -7.03125 -0.964844 -3.089844 C -0.234375 -1.957031 1.347656 -2.433594 2.042969 -3.253906 C 3.550781 -4.996094 5.238281 -6.558594 7.042969 -7.984375 C 8.957031 -9.476562 6.507812 -12.367188 4.59375 -10.878906 Z M 4.59375 -10.878906 "/></g></g></g><g fill="#ffffff" fill-opacity="1"><g transform="translate(40.072267, 64.317584)"><g><path d="M -3.058594 -20.625 C -7.011719 -21.179688 -10.761719 -17.261719 -10.335938 -13.425781 C -10.253906 -9.933594 -6.402344 -6.300781 -3.632812 -5.019531 C -1.730469 -4.152344 0.757812 -3.847656 2.578125 -5.039062 C 4.484375 -6.253906 5.378906 -8.589844 5.371094 -10.777344 C 5.34375 -13.019531 4.390625 -15.167969 2.910156 -16.832031 C 1.433594 -18.460938 -0.800781 -20.316406 -3.058594 -20.625 Z M 1.648438 -10.851562 C 1.640625 -10.761719 1.648438 -10.6875 1.65625 -10.582031 C 1.675781 -9.523438 1.074219 -8.351562 0.0234375 -8.101562 C -0.640625 -7.925781 -1.328125 -8.160156 -1.949219 -8.4375 C -2.953125 -8.929688 -3.863281 -9.609375 -4.644531 -10.410156 C -5.347656 -11.148438 -6.1875 -12.15625 -6.464844 -13.136719 C -6.699219 -14.007812 -6.492188 -14.980469 -5.933594 -15.703125 C -4.964844 -16.933594 -3.503906 -17.042969 -2.257812 -16.253906 C -0.34375 -15.085938 1.464844 -13.183594 1.648438 -10.851562 Z M 1.648438 -10.851562 "/></g></g></g><g fill="#ffffff" fill-opacity="1"><g transform="translate(50.946263, 53.387331)"><g><path d="M 5.472656 -11.53125 C 3.890625 -9.5 0.535156 -6.769531 -1.179688 -10.273438 C -2.34375 -12.644531 -1.621094 -15.765625 0.640625 -17.167969 C 2.71875 -18.433594 0.484375 -21.496094 -1.59375 -20.230469 C -5.714844 -17.691406 -6.628906 -11.613281 -4.027344 -7.664062 C -2.714844 -5.648438 -0.484375 -4.523438 1.941406 -4.796875 C 4.707031 -5.121094 6.804688 -7.089844 8.449219 -9.167969 C 9.945312 -11.101562 7.003906 -13.460938 5.472656 -11.53125 Z M 5.472656 -11.53125 "/></g></g></g><g fill="#ffffff" fill-opacity="1"><g transform="translate(61.961606, 45.185994)"><g><path d="M 5.171875 -20.199219 C 1.742188 -22.238281 -3.230469 -20.082031 -4.328125 -16.382812 C -5.601562 -13.128906 -3.460938 -8.289062 -1.402344 -6.035156 C 0.0117188 -4.5 2.191406 -3.253906 4.328125 -3.644531 C 6.558594 -4.027344 8.285156 -5.832031 9.128906 -7.855469 C 9.972656 -9.933594 9.925781 -12.28125 9.207031 -14.390625 C 8.476562 -16.460938 7.136719 -19.039062 5.171875 -20.199219 Z M 5.722656 -9.363281 C 5.679688 -9.285156 5.660156 -9.214844 5.628906 -9.113281 C 5.234375 -8.132812 4.226562 -7.28125 3.160156 -7.457031 C 2.480469 -7.554688 1.9375 -8.039062 1.472656 -8.535156 C 0.738281 -9.375 0.160156 -10.355469 -0.25 -11.398438 C -0.609375 -12.347656 -0.992188 -13.605469 -0.871094 -14.613281 C -0.746094 -15.511719 -0.179688 -16.328125 0.613281 -16.777344 C 1.984375 -17.53125 3.375 -17.070312 4.21875 -15.859375 C 5.53125 -14.039062 6.460938 -11.585938 5.722656 -9.363281 Z M 5.722656 -9.363281 "/></g></g></g><g fill="#ffffff" fill-opacity="1"><g transform="translate(75.13176, 37.888272)"><g><path d="M 15.035156 -14.480469 C 14.3125 -16.554688 13.191406 -19.03125 11.027344 -19.933594 C 8.636719 -20.945312 7.128906 -19.484375 6.292969 -17.363281 C 6.21875 -17.421875 6.117188 -17.492188 6.035156 -17.574219 C 4.078125 -19.128906 1.394531 -18.074219 0.324219 -16.011719 C -0.816406 -13.765625 -0.765625 -10.746094 -0.515625 -8.324219 C -0.21875 -5.679688 0.460938 -3.085938 1.15625 -0.519531 C 1.78125 1.828125 5.378906 0.628906 4.753906 -1.722656 C 3.910156 -4.796875 3.078125 -7.925781 3.148438 -11.148438 C 3.179688 -11.851562 3.234375 -12.5625 3.394531 -13.28125 C 3.449219 -13.511719 3.546875 -14.261719 3.808594 -14.429688 C 3.808594 -14.429688 3.832031 -14.4375 3.824219 -14.464844 C 3.839844 -14.414062 3.847656 -14.390625 3.914062 -14.359375 C 4.328125 -14.070312 4.609375 -12.914062 4.785156 -12.464844 C 5.097656 -11.613281 5.34375 -10.710938 5.539062 -9.816406 C 6.011719 -7.761719 9.574219 -8.417969 9.246094 -10.519531 C 9.003906 -11.878906 9.011719 -13.210938 9.335938 -14.546875 C 9.464844 -14.960938 9.847656 -15.570312 10.023438 -16.082031 C 10.199219 -15.714844 10.519531 -15.394531 10.695312 -15.027344 C 12.328125 -12.054688 12.878906 -8.324219 13.632812 -5.035156 C 14.164062 -2.652344 17.75 -3.878906 17.226562 -6.234375 C 16.59375 -9.007812 15.976562 -11.8125 15.035156 -14.480469 Z M 15.035156 -14.480469 "/></g></g></g><g fill="#ffffff" fill-opacity="1"><g transform="translate(92.83327, 31.835868)"><g><path d="M 17.417969 -11.496094 C 17.089844 -13.671875 16.4375 -16.308594 14.472656 -17.589844 C 12.308594 -19.023438 10.558594 -17.859375 9.347656 -15.929688 C 9.289062 -15.996094 9.199219 -16.085938 9.136719 -16.179688 C 7.492188 -18.066406 4.664062 -17.515625 3.234375 -15.683594 C 1.703125 -13.683594 1.203125 -10.703125 1.007812 -8.277344 C 0.820312 -5.625 1.015625 -2.949219 1.234375 -0.300781 C 1.421875 2.121094 5.171875 1.597656 4.988281 -0.828125 C 4.71875 -4.003906 4.472656 -7.234375 5.125 -10.386719 C 5.285156 -11.074219 5.46875 -11.761719 5.757812 -12.441406 C 5.855469 -12.65625 6.085938 -13.378906 6.375 -13.496094 C 6.375 -13.496094 6.398438 -13.5 6.394531 -13.523438 C 6.402344 -13.472656 6.40625 -13.449219 6.464844 -13.40625 C 6.820312 -13.046875 6.882812 -11.859375 6.976562 -11.386719 C 7.128906 -10.488281 7.207031 -9.554688 7.234375 -8.640625 C 7.324219 -6.535156 10.945312 -6.535156 11.007812 -8.660156 C 11.015625 -10.039062 11.265625 -11.351562 11.832031 -12.601562 C 12.03125 -12.988281 12.519531 -13.515625 12.785156 -13.984375 C 12.890625 -13.59375 13.148438 -13.21875 13.253906 -12.828125 C 14.316406 -9.609375 14.183594 -5.839844 14.324219 -2.464844 C 14.410156 -0.03125 18.160156 -0.582031 18.074219 -2.992188 C 17.957031 -5.832031 17.863281 -8.703125 17.417969 -11.496094 Z M 17.417969 -11.496094 "/></g></g></g><g fill="#ffffff" fill-opacity="1"><g transform="translate(111.475914, 29.27152)"><g><path d="M 14.453125 -15.03125 C 12.472656 -18.496094 7.082031 -19.070312 4.304688 -16.386719 C 1.59375 -14.1875 1.070312 -8.917969 1.75 -5.941406 C 2.226562 -3.910156 3.507812 -1.75 5.5625 -1.039062 C 7.691406 -0.273438 10.085938 -0.996094 11.8125 -2.339844 C 13.570312 -3.730469 14.6875 -5.800781 15.097656 -7.988281 C 15.484375 -10.152344 15.589844 -13.054688 14.453125 -15.03125 Z M 9.59375 -5.328125 C 9.515625 -5.28125 9.464844 -5.230469 9.386719 -5.15625 C 8.5625 -4.496094 7.265625 -4.253906 6.425781 -4.933594 C 5.878906 -5.351562 5.644531 -6.042969 5.488281 -6.703125 C 5.261719 -7.796875 5.242188 -8.933594 5.398438 -10.039062 C 5.550781 -11.046875 5.839844 -12.328125 6.441406 -13.148438 C 6.992188 -13.863281 7.886719 -14.296875 8.796875 -14.296875 C 10.363281 -14.28125 11.347656 -13.191406 11.484375 -11.722656 C 11.726562 -9.492188 11.328125 -6.898438 9.59375 -5.328125 Z M 9.59375 -5.328125 "/></g></g></g><g fill="#ffffff" fill-opacity="1"><g transform="translate(88.473658, 57.317401)"><g><path d="M 11.277344 -8.070312 C 10.519531 -8.128906 9.734375 -8.164062 8.976562 -8.199219 C 8.964844 -8.804688 8.949219 -9.410156 8.9375 -9.992188 C 8.863281 -12.441406 5.074219 -12.363281 5.148438 -9.914062 C 5.160156 -9.382812 5.171875 -8.851562 5.183594 -8.296875 C 4.425781 -8.304688 3.667969 -8.316406 2.910156 -8.300781 C 0.457031 -8.246094 0.539062 -4.457031 2.988281 -4.511719 C 3.746094 -4.527344 4.503906 -4.515625 5.261719 -4.507812 C 5.304688 -3.648438 5.324219 -2.765625 5.34375 -1.882812 C 5.394531 0.570312 9.183594 0.488281 9.132812 -1.960938 C 9.113281 -2.769531 9.097656 -3.601562 9.054688 -4.410156 C 9.839844 -4.375 10.597656 -4.339844 11.355469 -4.28125 C 13.785156 -4.105469 13.707031 -7.894531 11.277344 -8.070312 Z M 11.277344 -8.070312 "/></g></g></g><g fill="#ffffff" fill-opacity="1"><g transform="translate(109.314817, 57.964305)"><g><path d="M 4.773438 -5.777344 C 4.753906 -6.785156 3.296875 -6.785156 3.316406 -5.777344 C 3.335938 -4.824219 3.335938 -3.839844 3.113281 -2.90625 C 3.042969 -2.625 2.945312 -2.265625 2.695312 -2.101562 C 2.402344 -1.90625 2.050781 -2.070312 1.933594 -2.410156 C 1.613281 -3.355469 0.203125 -2.945312 0.523438 -1.992188 C 1.019531 -0.554688 2.675781 0.0976562 3.78125 -1.039062 C 4.882812 -2.160156 4.792969 -4.296875 4.773438 -5.777344 Z M 4.773438 -5.777344 "/></g></g></g><g fill="#ffffff" fill-opacity="1"><g transform="translate(114.594692, 57.964305)"><g><path d="M 5.40625 -5.929688 C 4.609375 -7.242188 2.527344 -7.410156 1.488281 -6.347656 C 0.464844 -5.472656 0.320312 -3.441406 0.613281 -2.304688 C 0.816406 -1.527344 1.332031 -0.710938 2.128906 -0.457031 C 2.957031 -0.183594 3.871094 -0.484375 4.519531 -1.019531 C 5.183594 -1.574219 5.589844 -2.382812 5.726562 -3.226562 C 5.855469 -4.0625 5.863281 -5.183594 5.40625 -5.929688 Z M 3.636719 -2.148438 C 3.609375 -2.128906 3.589844 -2.109375 3.558594 -2.082031 C 3.246094 -1.816406 2.75 -1.710938 2.421875 -1.964844 C 2.207031 -2.121094 2.109375 -2.382812 2.042969 -2.636719 C 1.945312 -3.054688 1.925781 -3.492188 1.972656 -3.917969 C 2.023438 -4.308594 2.121094 -4.804688 2.34375 -5.125 C 2.546875 -5.40625 2.886719 -5.582031 3.238281 -5.589844 C 3.839844 -5.601562 4.230469 -5.191406 4.296875 -4.628906 C 4.414062 -3.773438 4.289062 -2.769531 3.636719 -2.148438 Z M 3.636719 -2.148438 "/></g></g></g><g fill="#ffffff" fill-opacity="1"><g transform="translate(120.885812, 57.964305)"><g><path d="M 4.160156 -6.785156 C 3.996094 -5.960938 3.859375 -5.113281 3.742188 -4.277344 L 2.390625 -4.277344 C 2.410156 -4.492188 2.441406 -4.695312 2.460938 -4.902344 C 2.519531 -5.347656 2.507812 -5.882812 2.664062 -6.300781 C 2.996094 -7.175781 1.585938 -7.566406 1.253906 -6.691406 C 1.097656 -6.253906 1.097656 -5.71875 1.050781 -5.261719 C 0.980469 -4.746094 0.921875 -4.230469 0.867188 -3.714844 C 0.738281 -2.644531 0.613281 -1.574219 0.484375 -0.503906 C 0.378906 0.417969 1.835938 0.410156 1.945312 -0.503906 C 2.03125 -1.285156 2.128906 -2.050781 2.21875 -2.820312 L 3.558594 -2.820312 C 3.492188 -2.21875 3.433594 -1.605469 3.382812 -1 C 3.316406 -0.0664062 4.773438 -0.0664062 4.84375 -1 C 4.976562 -2.820312 5.222656 -4.617188 5.570312 -6.398438 C 5.746094 -7.320312 4.347656 -7.710938 4.160156 -6.785156 Z M 4.160156 -6.785156 "/></g></g></g><g fill="#ffffff" fill-opacity="1"><g transform="translate(126.963017, 57.964305)"><g><path d="M 4.277344 -5.882812 C 4.121094 -4.832031 3.9375 -3.792969 3.742188 -2.75 L 2.878906 -4.726562 C 2.625 -5.328125 1.703125 -5.113281 1.546875 -4.550781 C 1.136719 -3.035156 0.789062 -1.507812 0.496094 0.0390625 C 0.320312 0.953125 1.730469 1.351562 1.90625 0.429688 C 2.0625 -0.429688 2.246094 -1.273438 2.441406 -2.121094 C 2.75 -1.410156 3.054688 -0.699219 3.363281 0 C 3.617188 0.582031 4.570312 0.410156 4.695312 -0.164062 C 5.085938 -1.933594 5.414062 -3.703125 5.679688 -5.492188 C 5.816406 -6.417969 4.40625 -6.804688 4.277344 -5.882812 Z M 4.277344 -5.882812 "/></g></g></g><g fill="#ffffff" fill-opacity="1"><g transform="translate(133.147179, 57.964305)"><g/></g></g><g fill="#ffffff" fill-opacity="1"><g transform="translate(136.103129, 57.964305)"><g><path d="M 5.523438 -0.921875 C 4.988281 -1.652344 4.375 -2.304688 3.675781 -2.867188 C 4.199219 -3.238281 4.636719 -3.753906 4.824219 -4.308594 C 5.191406 -5.414062 4.199219 -6.503906 3.074219 -6.457031 C 1.875 -6.398438 1.089844 -5.289062 0.875 -4.210938 C 0.59375 -2.808594 0.59375 -1.324219 0.484375 0.0976562 C 0.410156 1.03125 1.867188 1.03125 1.945312 0.0976562 C 2.003906 -0.671875 2.0625 -1.4375 2.128906 -2.207031 C 2.957031 -1.664062 3.675781 -0.992188 4.269531 -0.183594 C 4.8125 0.5625 6.085938 -0.164062 5.523438 -0.921875 Z M 3.441406 -4.8125 C 3.480469 -4.65625 3.042969 -4.269531 2.925781 -4.160156 C 2.722656 -3.976562 2.527344 -3.839844 2.273438 -3.8125 C 2.304688 -3.976562 2.34375 -4.140625 2.410156 -4.296875 C 2.480469 -4.484375 3.304688 -5.472656 3.441406 -4.8125 Z M 3.441406 -4.8125 "/></g></g></g><g fill="#ffffff" fill-opacity="1"><g transform="translate(142.258123, 57.964305)"><g><path d="M 1.847656 -1.476562 C 1.703125 -1.605469 1.527344 -1.691406 1.332031 -1.691406 L 1.214844 -1.691406 C 1.019531 -1.691406 0.828125 -1.605469 0.699219 -1.476562 C 0.5625 -1.351562 0.476562 -1.136719 0.484375 -0.960938 C 0.484375 -0.769531 0.554688 -0.574219 0.699219 -0.449219 C 0.835938 -0.3125 1.011719 -0.234375 1.214844 -0.234375 L 1.332031 -0.234375 C 1.515625 -0.234375 1.710938 -0.3125 1.847656 -0.449219 C 1.972656 -0.574219 2.070312 -0.777344 2.0625 -0.960938 C 2.050781 -1.148438 1.992188 -1.34375 1.847656 -1.476562 Z M 1.847656 -1.476562 "/></g></g></g><g fill="#ffffff" fill-opacity="1"><g transform="translate(103.174588, 71.565451)"><g><path d="M 5.96875 -5.320312 C 5.621094 -6.953125 3.246094 -7.554688 1.886719 -7.050781 C 1.855469 -7.039062 1.835938 -7.03125 1.816406 -7.019531 C 1.488281 -7.050781 1.070312 -6.84375 1.019531 -6.496094 C 0.835938 -5.085938 0.523438 -3.625 0.484375 -2.207031 C 0.449219 -0.902344 1.535156 -0.253906 2.742188 -0.390625 C 3.878906 -0.523438 5.074219 -1.429688 5.054688 -2.664062 C 5.046875 -2.996094 4.960938 -3.277344 4.8125 -3.5 C 5.582031 -3.871094 6.15625 -4.453125 5.96875 -5.320312 Z M 3.492188 -5.707031 C 3.644531 -5.660156 4.550781 -5.347656 4.519531 -5.074219 C 4.511719 -4.929688 3.878906 -4.707031 3.714844 -4.648438 C 3.316406 -4.503906 2.917969 -4.445312 2.5 -4.433594 C 2.449219 -4.433594 2.390625 -4.433594 2.34375 -4.433594 C 2.292969 -4.433594 2.257812 -4.433594 2.207031 -4.425781 C 2.265625 -4.84375 2.324219 -5.261719 2.371094 -5.679688 C 2.75 -5.804688 3.101562 -5.816406 3.492188 -5.707031 Z M 3.394531 -2.238281 C 3.160156 -1.972656 2.3125 -1.574219 1.992188 -1.90625 C 1.867188 -2.03125 1.953125 -2.363281 1.972656 -2.539062 C 1.984375 -2.710938 2.011719 -2.878906 2.03125 -3.042969 C 2.121094 -3.003906 2.226562 -2.984375 2.34375 -2.976562 C 2.390625 -2.976562 2.441406 -2.976562 2.488281 -2.976562 C 3.015625 -2.976562 3.988281 -2.886719 3.394531 -2.238281 Z M 3.394531 -2.238281 "/></g></g></g><g fill="#ffffff" fill-opacity="1"><g transform="translate(109.669903, 71.565451)"><g><path d="M 5.40625 -5.929688 C 4.609375 -7.242188 2.527344 -7.410156 1.488281 -6.347656 C 0.464844 -5.472656 0.320312 -3.441406 0.613281 -2.304688 C 0.816406 -1.527344 1.332031 -0.710938 2.128906 -0.457031 C 2.957031 -0.183594 3.871094 -0.484375 4.519531 -1.019531 C 5.183594 -1.574219 5.589844 -2.382812 5.726562 -3.226562 C 5.855469 -4.0625 5.863281 -5.183594 5.40625 -5.929688 Z M 3.636719 -2.148438 C 3.609375 -2.128906 3.589844 -2.109375 3.558594 -2.082031 C 3.246094 -1.816406 2.75 -1.710938 2.421875 -1.964844 C 2.207031 -2.121094 2.109375 -2.382812 2.042969 -2.636719 C 1.945312 -3.054688 1.925781 -3.492188 1.972656 -3.917969 C 2.023438 -4.308594 2.121094 -4.804688 2.34375 -5.125 C 2.546875 -5.40625 2.886719 -5.582031 3.238281 -5.589844 C 3.839844 -5.601562 4.230469 -5.191406 4.296875 -4.628906 C 4.414062 -3.773438 4.289062 -2.769531 3.636719 -2.148438 Z M 3.636719 -2.148438 "/></g></g></g><g fill="#ffffff" fill-opacity="1"><g transform="translate(115.961025, 71.565451)"><g><path d="M 5.523438 -0.902344 C 4.988281 -1.644531 4.375 -2.292969 3.675781 -2.859375 C 4.199219 -3.226562 4.636719 -3.734375 4.824219 -4.289062 C 5.191406 -5.40625 4.199219 -6.484375 3.074219 -6.4375 C 1.875 -6.386719 1.089844 -5.28125 0.875 -4.199219 C 0.59375 -2.800781 0.59375 -1.304688 0.484375 0.117188 C 0.410156 1.050781 1.867188 1.039062 1.945312 0.117188 C 2.003906 -0.660156 2.0625 -1.429688 2.128906 -2.199219 C 2.957031 -1.652344 3.675781 -0.972656 4.269531 -0.164062 C 4.8125 0.582031 6.085938 -0.144531 5.523438 -0.902344 Z M 2.925781 -4.152344 C 2.722656 -3.96875 2.527344 -3.832031 2.273438 -3.792969 C 2.304688 -3.957031 2.34375 -4.121094 2.410156 -4.277344 C 2.480469 -4.472656 3.304688 -5.464844 3.441406 -4.804688 C 3.480469 -4.636719 3.042969 -4.25 2.925781 -4.152344 Z M 2.925781 -4.152344 "/></g></g></g><g fill="#ffffff" fill-opacity="1"><g transform="translate(122.116016, 71.565451)"><g><path d="M 4.316406 -2.332031 C 3.363281 -2.0625 1.703125 -1.972656 1.964844 -3.441406 C 2.140625 -4.445312 3.074219 -5.261719 4.09375 -5.171875 C 5.027344 -5.105469 5.027344 -6.5625 4.09375 -6.632812 C 2.238281 -6.777344 0.574219 -5.09375 0.484375 -3.285156 C 0.4375 -2.363281 0.875 -1.496094 1.691406 -1.039062 C 2.625 -0.503906 3.722656 -0.652344 4.707031 -0.921875 C 5.609375 -1.175781 5.230469 -2.585938 4.316406 -2.332031 Z M 4.316406 -2.332031 "/></g></g></g><g fill="#ffffff" fill-opacity="1"><g transform="translate(127.83345, 71.565451)"><g><path d="M 4.160156 -6.785156 C 3.996094 -5.960938 3.859375 -5.113281 3.742188 -4.277344 L 2.390625 -4.277344 C 2.410156 -4.492188 2.441406 -4.695312 2.460938 -4.902344 C 2.519531 -5.347656 2.507812 -5.882812 2.664062 -6.300781 C 2.996094 -7.175781 1.585938 -7.566406 1.253906 -6.691406 C 1.097656 -6.253906 1.097656 -5.71875 1.050781 -5.261719 C 0.980469 -4.746094 0.921875 -4.230469 0.867188 -3.714844 C 0.738281 -2.644531 0.613281 -1.574219 0.484375 -0.503906 C 0.378906 0.417969 1.835938 0.410156 1.945312 -0.503906 C 2.03125 -1.285156 2.128906 -2.050781 2.21875 -2.820312 L 3.558594 -2.820312 C 3.492188 -2.21875 3.433594 -1.605469 3.382812 -1 C 3.316406 -0.0664062 4.773438 -0.0664062 4.84375 -1 C 4.976562 -2.820312 5.222656 -4.617188 5.570312 -6.398438 C 5.746094 -7.320312 4.347656 -7.710938 4.160156 -6.785156 Z M 4.160156 -6.785156 "/></g></g></g><g fill="#ffffff" fill-opacity="1"><g transform="translate(133.910655, 71.565451)"><g><path d="M 4.054688 -2.050781 C 3.382812 -2.070312 2.710938 -2.050781 2.050781 -1.984375 C 2.101562 -2.351562 2.160156 -2.722656 2.207031 -3.101562 C 2.539062 -3.101562 2.867188 -3.082031 3.199219 -3.054688 C 3.597656 -3.015625 3.929688 -3.414062 3.929688 -3.78125 C 3.929688 -4.210938 3.597656 -4.472656 3.199219 -4.511719 C 2.945312 -4.53125 2.695312 -4.550781 2.429688 -4.550781 C 2.488281 -4.929688 2.558594 -5.308594 2.617188 -5.679688 C 3.113281 -5.679688 3.597656 -5.667969 4.09375 -5.628906 C 5.027344 -5.570312 5.027344 -7.03125 4.09375 -7.089844 C 3.394531 -7.136719 2.683594 -7.148438 1.984375 -7.128906 C 1.710938 -7.117188 1.515625 -6.980469 1.398438 -6.804688 C 1.351562 -6.730469 1.3125 -6.632812 1.292969 -6.515625 C 0.972656 -4.734375 0.710938 -2.945312 0.484375 -1.148438 C 0.417969 -0.632812 1 -0.378906 1.410156 -0.449219 C 2.285156 -0.582031 3.167969 -0.621094 4.054688 -0.59375 C 4.988281 -0.554688 4.988281 -2.011719 4.054688 -2.050781 Z M 4.054688 -2.050781 "/></g></g></g><g fill="#ffffff" fill-opacity="1"><g transform="translate(139.19053, 71.565451)"><g><path d="M 5.523438 -0.902344 C 4.988281 -1.644531 4.375 -2.292969 3.675781 -2.859375 C 4.199219 -3.226562 4.636719 -3.734375 4.824219 -4.289062 C 5.191406 -5.40625 4.199219 -6.484375 3.074219 -6.4375 C 1.875 -6.386719 1.089844 -5.28125 0.875 -4.199219 C 0.59375 -2.800781 0.59375 -1.304688 0.484375 0.117188 C 0.410156 1.050781 1.867188 1.039062 1.945312 0.117188 C 2.003906 -0.660156 2.0625 -1.429688 2.128906 -2.199219 C 2.957031 -1.652344 3.675781 -0.972656 4.269531 -0.164062 C 4.8125 0.582031 6.085938 -0.144531 5.523438 -0.902344 Z M 2.925781 -4.152344 C 2.722656 -3.96875 2.527344 -3.832031 2.273438 -3.792969 C 2.304688 -3.957031 2.34375 -4.121094 2.410156 -4.277344 C 2.480469 -4.472656 3.304688 -5.464844 3.441406 -4.804688 C 3.480469 -4.636719 3.042969 -4.25 2.925781 -4.152344 Z M 2.925781 -4.152344 "/></g></g></g><g fill="#ffffff" fill-opacity="1"><g transform="translate(145.345521, 71.565451)"><g><path d="M 4.425781 -6.679688 C 3.34375 -6.816406 2.265625 -6.835938 1.175781 -6.71875 C 0.253906 -6.632812 0.242188 -5.171875 1.175781 -5.269531 C 1.46875 -5.300781 1.75 -5.308594 2.03125 -5.328125 C 1.945312 -3.898438 1.867188 -2.480469 1.78125 -1.058594 C 1.722656 -0.117188 3.179688 -0.125 3.238281 -1.058594 C 3.324219 -2.46875 3.402344 -3.890625 3.492188 -5.308594 C 3.800781 -5.289062 4.113281 -5.261719 4.425781 -5.222656 C 5.359375 -5.09375 5.347656 -6.554688 4.425781 -6.679688 Z M 4.425781 -6.679688 "/></g></g></g><g fill="#ffffff" fill-opacity="1"><g transform="translate(96.503919, 85.166596)"><g><path d="M 7.253906 -3.472656 C 7.242188 -4.316406 7.136719 -5.347656 6.457031 -5.941406 C 5.707031 -6.601562 4.976562 -6.253906 4.414062 -5.582031 C 4.394531 -5.621094 4.367188 -5.660156 4.347656 -5.6875 C 3.820312 -6.496094 2.710938 -6.445312 2.070312 -5.816406 C 1.378906 -5.144531 1.03125 -4.027344 0.828125 -3.113281 C 0.613281 -2.109375 0.542969 -1.078125 0.484375 -0.0664062 C 0.429688 0.875 1.886719 0.867188 1.945312 -0.0664062 C 2.011719 -1.292969 2.089844 -2.539062 2.507812 -3.695312 C 2.605469 -3.957031 2.710938 -4.210938 2.859375 -4.445312 C 2.90625 -4.519531 3.035156 -4.785156 3.152344 -4.8125 C 3.152344 -4.824219 3.160156 -4.824219 3.160156 -4.824219 C 3.160156 -4.8125 3.160156 -4.792969 3.179688 -4.773438 C 3.296875 -4.617188 3.257812 -4.160156 3.265625 -3.976562 C 3.277344 -3.625 3.257812 -3.277344 3.21875 -2.917969 C 3.140625 -2.109375 4.519531 -1.914062 4.65625 -2.730469 C 4.734375 -3.246094 4.902344 -3.734375 5.183594 -4.179688 C 5.28125 -4.328125 5.492188 -4.503906 5.621094 -4.65625 C 5.640625 -4.503906 5.71875 -4.347656 5.738281 -4.199219 C 5.96875 -2.90625 5.71875 -1.476562 5.589844 -0.195312 C 5.492188 0.738281 6.953125 0.738281 7.050781 -0.195312 C 7.15625 -1.273438 7.273438 -2.371094 7.253906 -3.472656 Z M 7.253906 -3.472656 "/></g></g></g><g fill="#ffffff" fill-opacity="1"><g transform="translate(104.25357, 85.166596)"><g><path d="M 5.027344 -4.25 C 4.996094 -5.09375 4.976562 -7.3125 3.539062 -6.699219 C 2.605469 -6.300781 1.894531 -5.085938 1.496094 -4.199219 C 0.972656 -3.023438 0.71875 -1.769531 0.496094 -0.496094 C 0.332031 0.417969 1.730469 0.816406 1.894531 -0.105469 C 1.984375 -0.601562 2.070312 -1.089844 2.179688 -1.574219 L 3.636719 -1.527344 C 3.65625 -1.136719 3.664062 -0.75 3.675781 -0.359375 C 3.695312 0.574219 5.152344 0.574219 5.125 -0.359375 C 5.09375 -1.652344 5.074219 -2.957031 5.027344 -4.25 Z M 2.585938 -3.023438 C 2.605469 -3.074219 2.625 -3.132812 2.644531 -3.179688 C 2.808594 -3.617188 3.023438 -4.035156 3.277344 -4.425781 C 3.363281 -4.558594 3.460938 -4.675781 3.558594 -4.804688 C 3.570312 -4.609375 3.558594 -4.414062 3.570312 -4.25 C 3.589844 -3.832031 3.597656 -3.402344 3.609375 -2.984375 C 3.265625 -2.996094 2.925781 -3.003906 2.585938 -3.023438 Z M 2.585938 -3.023438 "/></g></g></g><g fill="#ffffff" fill-opacity="1"><g transform="translate(109.873769, 85.166596)"><g><path d="M 3.929688 -6.632812 C 3.335938 -6.863281 2.636719 -6.960938 2.03125 -6.730469 C 1.34375 -6.464844 1.097656 -5.882812 1.019531 -5.191406 C 0.816406 -3.453125 0.660156 -1.710938 0.484375 0.0390625 C 0.390625 0.972656 1.847656 0.960938 1.945312 0.0390625 C 2.023438 -0.699219 2.089844 -1.4375 2.167969 -2.179688 C 3.433594 -1.875 4.882812 -2.34375 5.464844 -3.578125 C 6.105469 -4.929688 5.164062 -6.125 3.929688 -6.632812 Z M 2.324219 -3.644531 C 2.351562 -3.929688 2.371094 -4.199219 2.402344 -4.484375 C 2.421875 -4.6875 2.390625 -5.027344 2.480469 -5.191406 C 2.566406 -5.378906 2.460938 -5.339844 2.675781 -5.40625 C 3.167969 -5.550781 4.269531 -4.996094 4.21875 -4.425781 C 4.152344 -3.539062 2.964844 -3.460938 2.324219 -3.644531 Z M 2.324219 -3.644531 "/></g></g></g><g fill="#ffffff" fill-opacity="1"><g transform="translate(116.038484, 85.166596)"><g/></g></g><g fill="#ffffff" fill-opacity="1"><g transform="translate(118.994437, 85.166596)"><g><path d="M 4.277344 -2.421875 C 3.519531 -2.363281 2.769531 -2.257812 2.03125 -2.101562 C 2.160156 -3.296875 2.273438 -4.492188 2.390625 -5.6875 C 2.480469 -6.621094 1.019531 -6.621094 0.933594 -5.6875 C 0.789062 -4.171875 0.632812 -2.65625 0.484375 -1.136719 C 0.4375 -0.660156 0.992188 -0.320312 1.410156 -0.4375 C 2.351562 -0.710938 3.304688 -0.886719 4.277344 -0.960938 C 5.210938 -1.03125 5.222656 -2.488281 4.277344 -2.421875 Z M 4.277344 -2.421875 "/></g></g></g><g fill="#ffffff" fill-opacity="1"><g transform="translate(124.468782, 85.166596)"><g><path d="M 0.921875 -5.980469 C 0.730469 -4.230469 0.582031 -2.46875 0.484375 -0.699219 C 0.429688 0.234375 1.886719 0.234375 1.945312 -0.699219 C 2.042969 -2.46875 2.1875 -4.230469 2.382812 -5.980469 C 2.480469 -6.914062 1.019531 -6.902344 0.921875 -5.980469 Z M 0.921875 -5.980469 "/></g></g></g><g fill="#ffffff" fill-opacity="1"><g transform="translate(127.346946, 85.166596)"><g><path d="M 5.96875 -5.308594 C 5.621094 -6.933594 3.246094 -7.546875 1.886719 -7.039062 C 1.855469 -7.03125 1.835938 -7.019531 1.816406 -7.011719 C 1.488281 -7.039062 1.070312 -6.824219 1.019531 -6.476562 C 0.835938 -5.074219 0.523438 -3.617188 0.484375 -2.199219 C 0.449219 -0.894531 1.535156 -0.234375 2.742188 -0.378906 C 3.878906 -0.515625 5.074219 -1.417969 5.054688 -2.644531 C 5.046875 -2.984375 4.960938 -3.265625 4.8125 -3.492188 C 5.582031 -3.859375 6.15625 -4.445312 5.96875 -5.308594 Z M 3.394531 -2.21875 C 3.160156 -1.964844 2.3125 -1.566406 1.992188 -1.894531 C 1.867188 -2.023438 1.953125 -2.351562 1.972656 -2.527344 C 1.984375 -2.695312 2.011719 -2.867188 2.03125 -3.035156 C 2.121094 -2.996094 2.226562 -2.964844 2.34375 -2.964844 C 2.390625 -2.964844 2.441406 -2.964844 2.488281 -2.964844 C 3.015625 -2.964844 3.988281 -2.878906 3.394531 -2.21875 Z M 3.714844 -4.628906 C 3.316406 -4.492188 2.917969 -4.433594 2.5 -4.425781 C 2.449219 -4.425781 2.390625 -4.425781 2.34375 -4.425781 C 2.292969 -4.425781 2.257812 -4.414062 2.207031 -4.414062 C 2.265625 -4.832031 2.324219 -5.25 2.371094 -5.667969 C 2.75 -5.785156 3.101562 -5.804688 3.492188 -5.699219 C 3.644531 -5.648438 4.550781 -5.339844 4.519531 -5.054688 C 4.511719 -4.921875 3.878906 -4.6875 3.714844 -4.628906 Z M 3.714844 -4.628906 "/></g></g></g><g fill="#ffffff" fill-opacity="1"><g transform="translate(133.84226, 85.166596)"><g><path d="M 5.523438 -0.902344 C 4.988281 -1.644531 4.375 -2.292969 3.675781 -2.859375 C 4.199219 -3.226562 4.636719 -3.734375 4.824219 -4.289062 C 5.191406 -5.40625 4.199219 -6.484375 3.074219 -6.4375 C 1.875 -6.386719 1.089844 -5.28125 0.875 -4.199219 C 0.59375 -2.800781 0.59375 -1.304688 0.484375 0.117188 C 0.410156 1.050781 1.867188 1.039062 1.945312 0.117188 C 2.003906 -0.660156 2.0625 -1.429688 2.128906 -2.199219 C 2.957031 -1.652344 3.675781 -0.972656 4.269531 -0.164062 C 4.8125 0.582031 6.085938 -0.144531 5.523438 -0.902344 Z M 2.925781 -4.152344 C 2.722656 -3.96875 2.527344 -3.832031 2.273438 -3.792969 C 2.304688 -3.957031 2.34375 -4.121094 2.410156 -4.277344 C 2.480469 -4.472656 3.304688 -5.464844 3.441406 -4.804688 C 3.480469 -4.636719 3.042969 -4.25 2.925781 -4.152344 Z M 2.925781 -4.152344 "/></g></g></g><g fill="#ffffff" fill-opacity="1"><g transform="translate(139.997253, 85.166596)"><g><path d="M 5.027344 -4.25 C 4.996094 -5.09375 4.976562 -7.3125 3.539062 -6.699219 C 2.605469 -6.300781 1.894531 -5.085938 1.496094 -4.199219 C 0.972656 -3.023438 0.71875 -1.769531 0.496094 -0.496094 C 0.332031 0.417969 1.730469 0.816406 1.894531 -0.105469 C 1.984375 -0.601562 2.070312 -1.089844 2.179688 -1.574219 L 3.636719 -1.527344 C 3.65625 -1.136719 3.664062 -0.75 3.675781 -0.359375 C 3.695312 0.574219 5.152344 0.574219 5.125 -0.359375 C 5.09375 -1.652344 5.074219 -2.957031 5.027344 -4.25 Z M 2.585938 -3.023438 C 2.605469 -3.074219 2.625 -3.132812 2.644531 -3.179688 C 2.808594 -3.617188 3.023438 -4.035156 3.277344 -4.425781 C 3.363281 -4.558594 3.460938 -4.675781 3.558594 -4.804688 C 3.570312 -4.609375 3.558594 -4.414062 3.570312 -4.25 C 3.589844 -3.832031 3.597656 -3.402344 3.609375 -2.984375 C 3.265625 -2.996094 2.925781 -3.003906 2.585938 -3.023438 Z M 2.585938 -3.023438 "/></g></g></g><g fill="#ffffff" fill-opacity="1"><g transform="translate(145.617453, 85.166596)"><g><path d="M 5.523438 -0.902344 C 4.988281 -1.644531 4.375 -2.292969 3.675781 -2.859375 C 4.199219 -3.226562 4.636719 -3.734375 4.824219 -4.289062 C 5.191406 -5.40625 4.199219 -6.484375 3.074219 -6.4375 C 1.875 -6.386719 1.089844 -5.28125 0.875 -4.199219 C 0.59375 -2.800781 0.59375 -1.304688 0.484375 0.117188 C 0.410156 1.050781 1.867188 1.039062 1.945312 0.117188 C 2.003906 -0.660156 2.0625 -1.429688 2.128906 -2.199219 C 2.957031 -1.652344 3.675781 -0.972656 4.269531 -0.164062 C 4.8125 0.582031 6.085938 -0.144531 5.523438 -0.902344 Z M 2.925781 -4.152344 C 2.722656 -3.96875 2.527344 -3.832031 2.273438 -3.792969 C 2.304688 -3.957031 2.34375 -4.121094 2.410156 -4.277344 C 2.480469 -4.472656 3.304688 -5.464844 3.441406 -4.804688 C 3.480469 -4.636719 3.042969 -4.25 2.925781 -4.152344 Z M 2.925781 -4.152344 "/></g></g></g><g fill="#ffffff" fill-opacity="1"><g transform="translate(151.772447, 85.166596)"><g><path d="M 3.917969 -6.640625 C 3.851562 -6.078125 3.78125 -5.503906 3.703125 -4.941406 C 3.472656 -4.472656 2.75 -3.714844 2.207031 -4.074219 C 1.664062 -4.445312 1.984375 -5.640625 2.179688 -6.085938 C 2.558594 -6.953125 1.234375 -7.566406 0.855469 -6.710938 C 0.332031 -5.484375 0.183594 -3.472656 1.59375 -2.75 C 2.121094 -2.488281 2.683594 -2.488281 3.21875 -2.675781 C 3.042969 -2.257812 2.769531 -1.875 2.332031 -1.683594 C 1.488281 -1.304688 1.992188 0.0664062 2.859375 -0.320312 C 5.105469 -1.332031 5.085938 -4.296875 5.359375 -6.386719 C 5.472656 -7.320312 4.046875 -7.574219 3.917969 -6.640625 Z M 3.917969 -6.640625 "/></g></g></g></svg>